<svg width="85" height="122" viewBox="0 0 85 122" fill="none" xmlns="http://www.w3.org/2000/svg">
<path d="M58.3476 57.0821C49.665 63.5516 51.5677 78.7254 53.8494 72.2063C58.0868 75.9222 53.5536 65.6847 60.9552 59.429C70.0818 51.7152 74.58 32.1142 70.0818 32.7009C66.4312 35.0478 67.8841 49.9764 58.3476 57.0821Z" fill="white"/>
<path d="M24.6449 56.1044C32.4935 62.1546 33.1627 78.9371 30.186 71.7502C26.3348 77.2948 28.8171 65.6876 22.9499 59.69C13.8025 54.3444 10.4281 33.6332 14.9965 33.1575C19.5349 34.6011 16.019 49.4551 24.6449 56.1044Z" fill="white"/>
<path d="M59.5203 26.8989C59.5203 31.0753 62.906 34.461 67.0824 34.461C71.2589 34.461 74.6445 31.0753 74.6445 26.8989C74.6445 22.7225 71.2589 19.3368 67.0824 19.3368C62.906 19.3368 59.5203 22.7225 59.5203 26.8989ZM72.2623 26.8989C72.2623 29.7596 69.9432 32.0787 67.0824 32.0787C64.2217 32.0787 61.9026 29.7596 61.9026 26.8989C61.9026 24.0381 64.2217 21.7191 67.0824 21.7191C69.9432 21.7191 72.2623 24.0381 72.2623 26.8989Z" fill="#40CAFD"/>
<path d="M39.1785 45.5434C39.1785 49.7198 42.5642 53.1055 46.7406 53.1055C50.9171 53.1055 54.3027 49.7198 54.3027 45.5434C54.3027 41.367 50.9171 37.9813 46.7406 37.9813C42.5642 37.9813 39.1785 41.367 39.1785 45.5434ZM51.9205 45.5434C51.9205 48.4041 49.6014 50.7232 46.7406 50.7232C43.8799 50.7232 41.5608 48.4041 41.5608 45.5434C41.5608 42.6826 43.8799 40.3635 46.7406 40.3635C49.6014 40.3635 51.9205 42.6826 51.9205 45.5434Z" fill="#40CAFD"/>
<path d="M28.3601 29.8979C28.3601 34.0744 31.7458 37.46 35.9223 37.46C40.0987 37.46 43.4844 34.0744 43.4844 29.8979C43.4844 25.7215 40.0987 22.3359 35.9223 22.3359C31.7458 22.3359 28.3601 25.7215 28.3601 29.8979ZM41.1021 29.8979C41.1021 32.7587 38.783 35.0778 35.9223 35.0778C33.0615 35.0778 30.7424 32.7587 30.7424 29.8979C30.7424 27.0372 33.0615 24.7181 35.9223 24.7181C38.783 24.7181 41.1021 27.0372 41.1021 29.8979Z" fill="white"/>
<path d="M7.63163 26.8989C7.63163 31.0753 11.0173 34.461 15.1937 34.461C19.3702 34.461 22.7559 31.0753 22.7559 26.8989C22.7559 22.7225 19.3702 19.3368 15.1937 19.3368C11.0173 19.3368 7.63163 22.7225 7.63163 26.8989ZM20.3736 26.8989C20.3736 29.7596 18.0545 32.0787 15.1937 32.0787C12.333 32.0787 10.0139 29.7596 10.0139 26.8989C10.0139 24.0381 12.333 21.7191 15.1937 21.7191C18.0545 21.7191 20.3736 24.0381 20.3736 26.8989Z" fill="#40CAFD"/>
<rect width="28.2927" height="4.0418" transform="matrix(-1 0 0 1 55.9824 71.4892)" fill="white"/>
<rect width="23.4686" height="4.0418" transform="matrix(-1 0 0 1 53.5234 77.226)" fill="white"/>
<path d="M51.3066 82.963H32.271V86.2226L32.7278 86.4833C38.5073 89.7818 45.622 89.682 51.3066 86.2226V82.963Z" fill="white"/>
<path d="M36.5752 55.1266C41.9653 63.7318 42.9169 79.1449 39.9402 71.958C37.2716 77.0306 36.2463 64.3837 33.1614 58.3209C29.5791 51.2805 29.3183 37.1341 33.1614 35.374C35.5321 37.6557 34.7137 52.1549 36.5752 55.1266Z" fill="white"/>
<path d="M16.657 19.906C19.299 15.5842 23.0083 12.0146 27.4283 9.54027C31.8483 7.06598 36.8305 5.77022 41.8959 5.77751C46.9614 5.78481 51.9398 7.09492 56.3526 9.58193C60.7655 12.0689 64.4645 15.6492 67.094 19.9787L62.8935 22.5299C60.7016 18.921 57.6182 15.9365 53.9397 13.8634C50.2612 11.7903 46.1113 10.6982 41.8889 10.6921C37.6664 10.686 33.5134 11.7661 29.8289 13.8287C26.1445 15.8912 23.0525 18.8667 20.8502 22.4693L16.657 19.906Z" fill="#40CAFD"/>
<path d="M31.5588 8.39596C35.314 8.3857 39.0088 9.34153 42.2879 11.1716C45.567 13.0017 48.3203 15.6444 50.283 18.8459C52.2458 22.0473 53.3521 25.6998 53.4956 29.4523C53.6391 33.2048 52.8149 36.9311 51.1023 40.2731L47.8598 38.6115C49.2874 35.8257 49.9744 32.7195 49.8548 29.5915C49.7352 26.4635 48.813 23.4189 47.1769 20.7502C45.5408 18.0815 43.2457 15.8786 40.5123 14.3531C37.7789 12.8276 34.699 12.0308 31.5687 12.0394L31.5588 8.39596Z" fill="#40CAFD"/>
<path d="M12.6192 106.471L9.29533 106.675C9.23851 106.391 9.11635 106.136 8.92885 105.908C8.74135 105.675 8.49419 105.491 8.18737 105.354C7.88624 105.212 7.52544 105.141 7.10499 105.141C6.54249 105.141 6.06806 105.261 5.68169 105.499C5.29533 105.732 5.10215 106.045 5.10215 106.437C5.10215 106.749 5.22715 107.014 5.47715 107.229C5.72715 107.445 6.15612 107.619 6.76408 107.749L9.1334 108.227C10.4061 108.488 11.355 108.908 11.98 109.488C12.605 110.068 12.9175 110.829 12.9175 111.772C12.9175 112.63 12.6646 113.383 12.159 114.031C11.659 114.678 10.9715 115.184 10.0965 115.548C9.22715 115.906 8.22431 116.085 7.08794 116.085C5.35499 116.085 3.9743 115.724 2.9459 115.002C1.92317 114.275 1.32374 113.286 1.1476 112.036L4.71862 111.849C4.82658 112.377 5.08794 112.781 5.50271 113.059C5.91749 113.332 6.44874 113.468 7.09646 113.468C7.73283 113.468 8.24419 113.346 8.63056 113.102C9.0226 112.852 9.22146 112.531 9.22715 112.139C9.22146 111.809 9.08226 111.539 8.80953 111.329C8.53681 111.113 8.11635 110.948 7.54817 110.835L5.28112 110.383C4.00271 110.127 3.05101 109.684 2.42601 109.053C1.80669 108.423 1.49703 107.619 1.49703 106.641C1.49703 105.8 1.7243 105.076 2.17885 104.468C2.63908 103.86 3.28396 103.391 4.11351 103.062C4.94874 102.732 5.92601 102.568 7.04533 102.568C8.69874 102.568 9.99987 102.917 10.9487 103.616C11.9033 104.315 12.4601 105.266 12.6192 106.471ZM20.4868 102.738V105.465H12.6033V102.738H20.4868ZM14.393 99.6016H18.0237V111.806C18.0237 112.141 18.0748 112.403 18.1771 112.59C18.2794 112.772 18.4214 112.9 18.6033 112.974C18.7908 113.048 19.0067 113.085 19.251 113.085C19.4214 113.085 19.5919 113.07 19.7623 113.042C19.9328 113.008 20.0635 112.982 20.1544 112.965L20.7254 115.667C20.5436 115.724 20.2879 115.789 19.9584 115.863C19.6288 115.943 19.2283 115.991 18.7567 116.008C17.8817 116.042 17.1146 115.925 16.4555 115.658C15.8021 115.391 15.2936 114.977 14.93 114.414C14.5663 113.852 14.3873 113.141 14.393 112.283V99.6016ZM29.5667 110.255V102.738H33.1974V115.829H29.7116V113.451H29.5752C29.2798 114.218 28.7883 114.835 28.1008 115.3C27.419 115.766 26.5866 115.999 25.6037 115.999C24.7287 115.999 23.9588 115.8 23.294 115.403C22.6292 115.005 22.1093 114.44 21.7343 113.707C21.365 112.974 21.1775 112.096 21.1718 111.073V102.738H24.8025V110.425C24.8082 111.198 25.0156 111.809 25.4247 112.258C25.8338 112.707 26.3821 112.931 27.0696 112.931C27.5071 112.931 27.9162 112.832 28.2968 112.633C28.6775 112.428 28.9843 112.127 29.2173 111.729C29.4559 111.332 29.5724 110.84 29.5667 110.255ZM39.2454 116.042C38.2511 116.042 37.3505 115.786 36.5437 115.275C35.7425 114.758 35.1062 113.999 34.6346 112.999C34.1687 111.994 33.9357 110.761 33.9357 109.3C33.9357 107.8 34.1772 106.553 34.6602 105.559C35.1431 104.559 35.7852 103.812 36.5863 103.318C37.3931 102.818 38.2766 102.568 39.2369 102.568C39.9698 102.568 40.5806 102.693 41.0692 102.943C41.5636 103.187 41.9613 103.494 42.2624 103.863C42.5692 104.227 42.8022 104.585 42.9613 104.937H43.0721V98.3743H46.6942V115.829H43.1147V113.732H42.9613C42.7908 114.096 42.5494 114.457 42.2369 114.815C41.93 115.167 41.5295 115.46 41.0352 115.693C40.5465 115.925 39.9499 116.042 39.2454 116.042ZM40.396 113.153C40.9812 113.153 41.4755 112.994 41.8789 112.675C42.288 112.352 42.6005 111.9 42.8164 111.32C43.038 110.741 43.1488 110.062 43.1488 109.283C43.1488 108.505 43.0408 107.829 42.8249 107.255C42.609 106.681 42.2965 106.238 41.8874 105.925C41.4783 105.613 40.9812 105.457 40.396 105.457C39.7994 105.457 39.2965 105.619 38.8874 105.943C38.4783 106.266 38.1687 106.715 37.9585 107.289C37.7482 107.863 37.6431 108.528 37.6431 109.283C37.6431 110.045 37.7482 110.718 37.9585 111.303C38.1744 111.883 38.484 112.337 38.8874 112.667C39.2965 112.991 39.7994 113.153 40.396 113.153ZM53.9652 116.085C52.6187 116.085 51.4596 115.812 50.488 115.266C49.5221 114.715 48.7777 113.937 48.255 112.931C47.7323 111.92 47.4709 110.724 47.4709 109.343C47.4709 107.996 47.7323 106.815 48.255 105.798C48.7777 104.781 49.5135 103.988 50.4624 103.42C51.4169 102.852 52.5363 102.568 53.8204 102.568C54.684 102.568 55.488 102.707 56.2323 102.985C56.9823 103.258 57.6357 103.67 58.1925 104.221C58.755 104.772 59.1925 105.465 59.505 106.3C59.8175 107.13 59.9738 108.102 59.9738 109.215V110.212H48.9198V107.962H56.5562C56.5562 107.44 56.4425 106.977 56.2152 106.573C55.988 106.17 55.6726 105.854 55.2692 105.627C54.8715 105.394 54.4084 105.278 53.88 105.278C53.3289 105.278 52.8402 105.406 52.4141 105.661C51.9937 105.911 51.6641 106.249 51.4255 106.675C51.1868 107.096 51.0647 107.565 51.059 108.082V110.221C51.059 110.869 51.1783 111.428 51.4169 111.9C51.6613 112.371 52.005 112.735 52.4482 112.991C52.8914 113.246 53.4169 113.374 54.0249 113.374C54.4283 113.374 54.7976 113.318 55.1329 113.204C55.4681 113.09 55.755 112.92 55.9937 112.693C56.2323 112.465 56.4141 112.187 56.5391 111.857L59.8971 112.079C59.7266 112.886 59.3772 113.59 58.8488 114.193C58.326 114.789 57.6499 115.255 56.8204 115.59C55.9965 115.92 55.0448 116.085 53.9652 116.085ZM72.5161 102.738L67.9394 115.829H63.8485L59.2717 102.738H63.107L65.8257 112.104H65.9621L68.6723 102.738H72.5161ZM83.5861 106.471L80.2622 106.675C80.2054 106.391 80.0832 106.136 79.8957 105.908C79.7082 105.675 79.4611 105.491 79.1542 105.354C78.8531 105.212 78.4923 105.141 78.0719 105.141C77.5094 105.141 77.0349 105.261 76.6486 105.499C76.2622 105.732 76.069 106.045 76.069 106.437C76.069 106.749 76.194 107.014 76.444 107.229C76.694 107.445 77.123 107.619 77.731 107.749L80.1003 108.227C81.373 108.488 82.3219 108.908 82.9469 109.488C83.5719 110.068 83.8844 110.829 83.8844 111.772C83.8844 112.63 83.6315 113.383 83.1258 114.031C82.6258 114.678 81.9383 115.184 81.0633 115.548C80.194 115.906 79.1912 116.085 78.0548 116.085C76.3219 116.085 74.9412 115.724 73.9128 115.002C72.89 114.275 72.2906 113.286 72.1145 112.036L75.6855 111.849C75.7935 112.377 76.0548 112.781 76.4696 113.059C76.8844 113.332 77.4156 113.468 78.0633 113.468C78.6997 113.468 79.2111 113.346 79.5974 113.102C79.9895 112.852 80.1883 112.531 80.194 112.139C80.1883 111.809 80.0491 111.539 79.7764 111.329C79.5037 111.113 79.0832 110.948 78.515 110.835L76.248 110.383C74.9696 110.127 74.0179 109.684 73.3929 109.053C72.7736 108.423 72.4639 107.619 72.4639 106.641C72.4639 105.8 72.6912 105.076 73.1457 104.468C73.606 103.86 74.2508 103.391 75.0804 103.062C75.9156 102.732 76.8929 102.568 78.0122 102.568C79.6656 102.568 80.9667 102.917 81.9156 103.616C82.8702 104.315 83.427 105.266 83.5861 106.471Z" fill="#F1F1F1"/>
</svg>
