<svg width="41" height="40" viewBox="0 0 41 40" fill="none" xmlns="http://www.w3.org/2000/svg">
<path d="M20.4004 0C17.774 0 15.1732 0.530159 12.7467 1.56021C10.3202 2.59025 8.11543 4.10002 6.25826 6.0033C2.50753 9.84714 0.400391 15.0605 0.400391 20.4965C0.400391 29.556 6.14039 37.2422 14.0804 39.9683C15.0804 40.1322 15.4004 39.4968 15.4004 38.9434V35.4795C9.86039 36.7093 8.68039 32.733 8.68039 32.733C7.76039 30.3554 6.46039 29.72 6.46039 29.72C4.64039 28.4492 6.60039 28.4902 6.60039 28.4902C8.60039 28.6337 9.66039 30.6013 9.66039 30.6013C11.4004 33.7168 14.3404 32.7945 15.4804 32.3025C15.6604 30.9703 16.1804 30.0684 16.7404 29.556C12.3004 29.0436 7.64039 27.2809 7.64039 19.4717C7.64039 17.1966 8.40039 15.3724 9.70039 13.9172C9.50039 13.4047 8.80039 11.2731 9.90039 8.50606C9.90039 8.50606 11.5804 7.95266 15.4004 10.5967C16.9804 10.1458 18.7004 9.92033 20.4004 9.92033C22.1004 9.92033 23.8204 10.1458 25.4004 10.5967C29.2204 7.95266 30.9004 8.50606 30.9004 8.50606C32.0004 11.2731 31.3004 13.4047 31.1004 13.9172C32.4004 15.3724 33.1604 17.1966 33.1604 19.4717C33.1604 27.3014 28.4804 29.0231 24.0204 29.5355C24.7404 30.1709 25.4004 31.4212 25.4004 33.3274V38.9434C25.4004 39.4968 25.7204 40.1527 26.7404 39.9683C34.6804 37.2217 40.4004 29.556 40.4004 20.4965C40.4004 17.8049 39.8831 15.1396 38.878 12.6529C37.8729 10.1661 36.3997 7.90658 34.5425 6.0033C32.6854 4.10002 30.4806 2.59025 28.0541 1.56021C25.6275 0.530159 23.0268 0 20.4004 0Z" fill="white"/>
</svg>
