<svg width="41" height="40" viewBox="0 0 41 40" fill="none" xmlns="http://www.w3.org/2000/svg">
<path d="M22.8568 0C25.1067 0.00599985 26.2486 0.0179996 27.2346 0.0459989L27.6226 0.0599985C28.0705 0.0759981 28.5125 0.0959976 29.0465 0.119997C31.1744 0.219995 32.6263 0.555987 33.9002 1.04997C35.2202 1.55796 36.3321 2.24595 37.4441 3.35592C38.4614 4.35536 39.2483 5.56481 39.75 6.89983C40.2439 8.1738 40.5799 9.62577 40.6799 11.7557C40.7039 12.2877 40.7239 12.7297 40.7399 13.1797L40.7519 13.5677C40.7819 14.5516 40.7939 15.6936 40.7979 17.9436L40.7999 19.4355V22.0555C40.8048 23.5142 40.7894 24.973 40.7539 26.4314L40.7419 26.8194C40.7259 27.2693 40.7059 27.7113 40.6819 28.2433C40.5819 30.3733 40.2419 31.8232 39.75 33.0992C39.2483 34.4342 38.4614 35.6437 37.4441 36.6431C36.4447 37.6605 35.2352 38.4474 33.9002 38.9491C32.6263 39.443 31.1744 39.779 29.0465 39.879L27.6226 39.939L27.2346 39.951C26.2486 39.979 25.1067 39.993 22.8568 39.997L21.3649 39.999H18.747C17.2876 40.0042 15.8282 39.9888 14.3692 39.953L13.9813 39.941C13.5065 39.9231 13.0318 39.9024 12.5573 39.879C10.4294 39.779 8.97751 39.443 7.70157 38.9491C6.3673 38.4472 5.15858 37.6602 4.15975 36.6431C3.14169 35.6439 2.35406 34.4344 1.85187 33.0992C1.35789 31.8252 1.02191 30.3733 0.921913 28.2433L0.861916 26.8194L0.851916 26.4314C0.81505 24.973 0.798383 23.5143 0.801919 22.0555V17.9436C0.796383 16.4848 0.811051 15.026 0.845917 13.5677L0.859916 13.1797C0.875915 12.7297 0.895914 12.2877 0.919913 11.7557C1.01991 9.62577 1.35589 8.1758 1.84987 6.89983C2.35323 5.56426 3.14225 4.35477 4.16175 3.35592C5.16001 2.33904 6.36801 1.55211 7.70157 1.04997C8.97751 0.555987 10.4274 0.219995 12.5573 0.119997C13.0893 0.0959976 13.5333 0.0759981 13.9813 0.0599985L14.3692 0.0479987C15.8275 0.0124651 17.2863 -0.00286933 18.745 0.00199981L22.8568 0ZM20.8009 9.99976C18.1489 9.99976 15.6055 11.0533 13.7302 12.9286C11.8549 14.8039 10.8014 17.3474 10.8014 19.9995C10.8014 22.6516 11.8549 25.1951 13.7302 27.0704C15.6055 28.9457 18.1489 29.9993 20.8009 29.9993C23.4529 29.9993 25.9964 28.9457 27.8716 27.0704C29.7469 25.1951 30.8004 22.6516 30.8004 19.9995C30.8004 17.3474 29.7469 14.8039 27.8716 12.9286C25.9964 11.0533 23.4529 9.99976 20.8009 9.99976ZM20.8009 13.9997C21.5888 13.9995 22.369 14.1546 23.097 14.456C23.8249 14.7574 24.4864 15.1992 25.0436 15.7563C25.6008 16.3133 26.0429 16.9747 26.3445 17.7025C26.6462 18.4304 26.8015 19.2106 26.8016 19.9985C26.8017 20.7864 26.6467 21.5667 26.3453 22.2946C26.0439 23.0226 25.6021 23.6841 25.045 24.2413C24.488 24.7986 23.8267 25.2406 23.0988 25.5423C22.371 25.8439 21.5908 25.9992 20.8029 25.9994C19.2117 25.9994 17.6856 25.3672 16.5605 24.2421C15.4353 23.1169 14.8032 21.5908 14.8032 19.9995C14.8032 18.4083 15.4353 16.8822 16.5605 15.757C17.6856 14.6318 19.2117 13.9997 20.8029 13.9997M31.3024 6.99983C30.6394 6.99983 30.0035 7.26322 29.5347 7.73205C29.0659 8.20088 28.8025 8.83675 28.8025 9.49977C28.8025 10.1628 29.0659 10.7987 29.5347 11.2675C30.0035 11.7363 30.6394 11.9997 31.3024 11.9997C31.9654 11.9997 32.6012 11.7363 33.0701 11.2675C33.5389 10.7987 33.8023 10.1628 33.8023 9.49977C33.8023 8.83675 33.5389 8.20088 33.0701 7.73205C32.6012 7.26322 31.9654 6.99983 31.3024 6.99983Z" fill="white"/>
</svg>
