<svg width="37" height="36" viewBox="0 0 37 36" fill="none" xmlns="http://www.w3.org/2000/svg">
<path d="M32.1992 0C33.2601 0 34.2775 0.421427 35.0276 1.17157C35.7778 1.92172 36.1992 2.93913 36.1992 4V32C36.1992 33.0609 35.7778 34.0783 35.0276 34.8284C34.2775 35.5786 33.2601 36 32.1992 36H4.19922C3.13835 36 2.12094 35.5786 1.37079 34.8284C0.620646 34.0783 0.199219 33.0609 0.199219 32V4C0.199219 2.93913 0.620646 1.92172 1.37079 1.17157C2.12094 0.421427 3.13835 0 4.19922 0H32.1992ZM31.1992 31V20.4C31.1992 18.6708 30.5123 17.0124 29.2896 15.7897C28.0668 14.5669 26.4084 13.88 24.6792 13.88C22.9792 13.88 20.9992 14.92 20.0392 16.48V14.26H14.4592V31H20.0392V21.14C20.0392 19.6 21.2792 18.34 22.8192 18.34C23.5618 18.34 24.274 18.635 24.7991 19.1601C25.3242 19.6852 25.6192 20.3974 25.6192 21.14V31H31.1992ZM7.95922 11.12C8.85035 11.12 9.70498 10.766 10.3351 10.1359C10.9652 9.50576 11.3192 8.65113 11.3192 7.76C11.3192 5.9 9.81922 4.38 7.95922 4.38C7.06279 4.38 6.20307 4.73611 5.5692 5.36998C4.93532 6.00385 4.57922 6.86357 4.57922 7.76C4.57922 9.62 6.09922 11.12 7.95922 11.12ZM10.7392 31V14.26H5.19922V31H10.7392Z" fill="white"/>
</svg>
