<svg width="40" height="32" viewBox="0 0 40 32" fill="none" xmlns="http://www.w3.org/2000/svg">
<path d="M4 32C2.9 32 1.95867 31.6087 1.176 30.826C0.393333 30.0433 0.00133333 29.1013 0 28V4C0 2.9 0.392 1.95867 1.176 1.176C1.96 0.393333 2.90133 0.00133333 4 0H36C37.1 0 38.042 0.392 38.826 1.176C39.61 1.96 40.0013 2.90133 40 4V28C40 29.1 39.6087 30.042 38.826 30.826C38.0433 31.61 37.1013 32.0013 36 32H4ZM20 17.65C20.1667 17.65 20.342 17.6247 20.526 17.574C20.71 17.5233 20.8847 17.4487 21.05 17.35L35.2 8.5C35.4667 8.33333 35.6667 8.12533 35.8 7.876C35.9333 7.62667 36 7.35133 36 7.05C36 6.38333 35.7167 5.88333 35.15 5.55C34.5833 5.21667 34 5.23333 33.4 5.6L20 14L6.6 5.6C6 5.23333 5.41667 5.22533 4.85 5.576C4.28333 5.92667 4 6.418 4 7.05C4 7.38333 4.06667 7.67533 4.2 7.926C4.33333 8.17667 4.53333 8.368 4.8 8.5L18.95 17.35C19.1167 17.45 19.292 17.5253 19.476 17.576C19.66 17.6267 19.8347 17.6513 20 17.65Z" fill="white"/>
</svg>
