<svg width="41" height="32" viewBox="0 0 41 32" fill="none" xmlns="http://www.w3.org/2000/svg">
<path fill-rule="evenodd" clip-rule="evenodd" d="M20.5996 0C22.3096 0 24.0636 0.0440002 25.7636 0.116L27.7716 0.212L29.6936 0.326L31.4936 0.448L33.1376 0.576C34.922 0.711783 36.6012 1.47287 37.8795 2.7252C39.1578 3.97754 39.9532 5.64079 40.1256 7.422L40.2056 8.272L40.3556 10.092C40.4956 11.978 40.5996 14.034 40.5996 16C40.5996 17.966 40.4956 20.022 40.3556 21.908L40.2056 23.728L40.1256 24.578C39.9532 26.3595 39.1575 28.023 37.8788 29.2754C36.6 30.5278 34.9203 31.2887 33.1356 31.424L31.4956 31.55L29.6956 31.674L27.7716 31.788L25.7636 31.884C24.0433 31.9585 22.3216 31.9972 20.5996 32C18.8777 31.9972 17.156 31.9585 15.4356 31.884L13.4276 31.788L11.5056 31.674L9.70561 31.55L8.06161 31.424C6.27724 31.2882 4.59801 30.5271 3.3197 29.2748C2.04139 28.0225 1.24599 26.3592 1.07361 24.578L0.993609 23.728L0.843609 21.908C0.691275 19.9422 0.609889 17.9716 0.599609 16C0.599609 14.034 0.703609 11.978 0.843609 10.092L0.993609 8.272L1.07361 7.422C1.24592 5.64111 2.04103 3.9781 3.31894 2.72581C4.59684 1.47352 6.27559 0.712233 8.05961 0.576L9.70161 0.448L11.5016 0.326L13.4256 0.212L15.4336 0.116C17.1546 0.0414544 18.877 0.00277916 20.5996 0ZM16.5996 11.15V20.85C16.5996 21.774 17.5996 22.35 18.3996 21.89L26.7996 17.04C26.9824 16.9348 27.1342 16.7832 27.2398 16.6007C27.3454 16.4181 27.4009 16.2109 27.4009 16C27.4009 15.7891 27.3454 15.5819 27.2398 15.3993C27.1342 15.2168 26.9824 15.0652 26.7996 14.96L18.3996 10.112C18.2171 10.0066 18.0101 9.9512 17.7994 9.95123C17.5887 9.95126 17.3817 10.0068 17.1993 10.1122C17.0168 10.2176 16.8654 10.3692 16.7601 10.5517C16.6548 10.7343 16.5995 10.9413 16.5996 11.152V11.15Z" fill="white"/>
</svg>
